<mxfile host="app.diagrams.net" agent="Mozilla/5.0 (Windows NT 10.0; Win64; x64; rv:131.0) Gecko/20100101 Firefox/131.0" version="24.7.15">
  <diagram name="Page-1" id="EMojSh9-CAxDy7ARi1Yv">
    <mxGraphModel dx="724" dy="385" grid="1" gridSize="10" guides="1" tooltips="1" connect="1" arrows="1" fold="1" page="1" pageScale="1" pageWidth="850" pageHeight="1100" math="0" shadow="0">
      <root>
        <mxCell id="0" />
        <mxCell id="1" parent="0" />
        <mxCell id="oneIxxHDJwhMEC2k5A7t-1" value="MISTER ED" style="ellipse;whiteSpace=wrap;html=1;aspect=fixed;" vertex="1" parent="1">
          <mxGeometry x="380" y="210" width="80" height="80" as="geometry" />
        </mxCell>
        <mxCell id="oneIxxHDJwhMEC2k5A7t-2" value="Patient" style="whiteSpace=wrap;html=1;aspect=fixed;" vertex="1" parent="1">
          <mxGeometry x="180" y="210" width="80" height="80" as="geometry" />
        </mxCell>
        <mxCell id="oneIxxHDJwhMEC2k5A7t-3" value="Healthcare Worker" style="whiteSpace=wrap;html=1;aspect=fixed;" vertex="1" parent="1">
          <mxGeometry x="380" y="50" width="80" height="80" as="geometry" />
        </mxCell>
        <mxCell id="oneIxxHDJwhMEC2k5A7t-4" value="Emergency Room Receptionist" style="whiteSpace=wrap;html=1;aspect=fixed;" vertex="1" parent="1">
          <mxGeometry x="580" y="200" width="80" height="80" as="geometry" />
        </mxCell>
        <mxCell id="oneIxxHDJwhMEC2k5A7t-5" value="" style="endArrow=classic;html=1;rounded=0;exitX=1;exitY=0.25;exitDx=0;exitDy=0;entryX=0;entryY=0;entryDx=0;entryDy=0;" edge="1" parent="1" source="oneIxxHDJwhMEC2k5A7t-2" target="oneIxxHDJwhMEC2k5A7t-1">
          <mxGeometry width="50" height="50" relative="1" as="geometry">
            <mxPoint x="270" y="230" as="sourcePoint" />
            <mxPoint x="380" y="230" as="targetPoint" />
          </mxGeometry>
        </mxCell>
        <mxCell id="oneIxxHDJwhMEC2k5A7t-6" value="Check Wait Times" style="edgeLabel;html=1;align=center;verticalAlign=middle;resizable=1;points=[];movable=1;rotatable=1;deletable=1;editable=1;locked=0;connectable=1;" vertex="1" connectable="0" parent="oneIxxHDJwhMEC2k5A7t-5">
          <mxGeometry relative="1" as="geometry">
            <mxPoint x="-6" y="-16" as="offset" />
          </mxGeometry>
        </mxCell>
        <mxCell id="oneIxxHDJwhMEC2k5A7t-7" value="" style="endArrow=classic;html=1;rounded=0;entryX=1;entryY=0.75;entryDx=0;entryDy=0;exitX=0.041;exitY=0.749;exitDx=0;exitDy=0;exitPerimeter=0;" edge="1" parent="1" source="oneIxxHDJwhMEC2k5A7t-1" target="oneIxxHDJwhMEC2k5A7t-2">
          <mxGeometry width="50" height="50" relative="1" as="geometry">
            <mxPoint x="340" y="300" as="sourcePoint" />
            <mxPoint x="390" y="250" as="targetPoint" />
          </mxGeometry>
        </mxCell>
        <mxCell id="oneIxxHDJwhMEC2k5A7t-8" value="&lt;font style=&quot;font-size: 11px;&quot;&gt;Receive Wait Times&lt;/font&gt;" style="text;html=1;align=center;verticalAlign=middle;resizable=0;points=[];autosize=1;strokeColor=none;fillColor=none;" vertex="1" parent="1">
          <mxGeometry x="260" y="248" width="120" height="30" as="geometry" />
        </mxCell>
        <mxCell id="oneIxxHDJwhMEC2k5A7t-9" value="" style="endArrow=classic;html=1;rounded=0;entryX=1;entryY=0.5;entryDx=0;entryDy=0;exitX=0;exitY=0.5;exitDx=0;exitDy=0;" edge="1" parent="1" source="oneIxxHDJwhMEC2k5A7t-1" target="oneIxxHDJwhMEC2k5A7t-2">
          <mxGeometry width="50" height="50" relative="1" as="geometry">
            <mxPoint x="380" y="290" as="sourcePoint" />
            <mxPoint x="430" y="240" as="targetPoint" />
          </mxGeometry>
        </mxCell>
        <mxCell id="oneIxxHDJwhMEC2k5A7t-10" value="&lt;font style=&quot;font-size: 11px;&quot;&gt;Get Perscription&lt;br&gt;&lt;/font&gt;" style="text;html=1;align=center;verticalAlign=middle;resizable=0;points=[];autosize=1;strokeColor=none;fillColor=none;" vertex="1" parent="1">
          <mxGeometry x="265" y="225" width="110" height="30" as="geometry" />
        </mxCell>
        <mxCell id="oneIxxHDJwhMEC2k5A7t-11" value="" style="endArrow=classic;html=1;rounded=0;exitX=0.234;exitY=0.075;exitDx=0;exitDy=0;exitPerimeter=0;entryX=0.185;entryY=0.986;entryDx=0;entryDy=0;entryPerimeter=0;" edge="1" parent="1" source="oneIxxHDJwhMEC2k5A7t-1" target="oneIxxHDJwhMEC2k5A7t-3">
          <mxGeometry width="50" height="50" relative="1" as="geometry">
            <mxPoint x="390" y="200" as="sourcePoint" />
            <mxPoint x="440" y="150" as="targetPoint" />
          </mxGeometry>
        </mxCell>
        <mxCell id="oneIxxHDJwhMEC2k5A7t-12" value="&lt;div&gt;&lt;font style=&quot;font-size: 11px;&quot;&gt;Get Patient&lt;/font&gt;&lt;/div&gt;&lt;div&gt;&lt;font style=&quot;font-size: 11px;&quot;&gt;Info&lt;br&gt;&lt;/font&gt;&lt;/div&gt;" style="text;html=1;align=center;verticalAlign=middle;resizable=0;points=[];autosize=1;strokeColor=none;fillColor=none;" vertex="1" parent="1">
          <mxGeometry x="345" y="143" width="80" height="40" as="geometry" />
        </mxCell>
        <mxCell id="oneIxxHDJwhMEC2k5A7t-13" value="" style="endArrow=classic;html=1;rounded=0;exitX=0.5;exitY=1;exitDx=0;exitDy=0;entryX=0.5;entryY=0;entryDx=0;entryDy=0;" edge="1" parent="1" source="oneIxxHDJwhMEC2k5A7t-3" target="oneIxxHDJwhMEC2k5A7t-1">
          <mxGeometry width="50" height="50" relative="1" as="geometry">
            <mxPoint x="430" y="188" as="sourcePoint" />
            <mxPoint x="480" y="138" as="targetPoint" />
          </mxGeometry>
        </mxCell>
        <mxCell id="oneIxxHDJwhMEC2k5A7t-15" value="Triage" style="text;html=1;align=center;verticalAlign=middle;resizable=0;points=[];autosize=1;strokeColor=none;fillColor=none;" vertex="1" parent="1">
          <mxGeometry x="390" y="153" width="60" height="30" as="geometry" />
        </mxCell>
        <mxCell id="oneIxxHDJwhMEC2k5A7t-16" value="" style="endArrow=classic;html=1;rounded=0;exitX=0.75;exitY=1;exitDx=0;exitDy=0;entryX=1;entryY=0;entryDx=0;entryDy=0;" edge="1" parent="1" source="oneIxxHDJwhMEC2k5A7t-3" target="oneIxxHDJwhMEC2k5A7t-1">
          <mxGeometry width="50" height="50" relative="1" as="geometry">
            <mxPoint x="450" y="200" as="sourcePoint" />
            <mxPoint x="450" y="200" as="targetPoint" />
          </mxGeometry>
        </mxCell>
        <mxCell id="oneIxxHDJwhMEC2k5A7t-17" value="&lt;div&gt;Perscribe&lt;/div&gt;&lt;div&gt;Medication&lt;br&gt;&lt;/div&gt;" style="text;html=1;align=center;verticalAlign=middle;resizable=0;points=[];autosize=1;strokeColor=none;fillColor=none;" vertex="1" parent="1">
          <mxGeometry x="435" y="138" width="80" height="40" as="geometry" />
        </mxCell>
        <mxCell id="oneIxxHDJwhMEC2k5A7t-18" value="" style="endArrow=classic;html=1;rounded=0;exitX=0;exitY=0.25;exitDx=0;exitDy=0;entryX=0.922;entryY=0.21;entryDx=0;entryDy=0;entryPerimeter=0;" edge="1" parent="1" source="oneIxxHDJwhMEC2k5A7t-4" target="oneIxxHDJwhMEC2k5A7t-1">
          <mxGeometry width="50" height="50" relative="1" as="geometry">
            <mxPoint x="520" y="233" as="sourcePoint" />
            <mxPoint x="570" y="183" as="targetPoint" />
          </mxGeometry>
        </mxCell>
        <mxCell id="oneIxxHDJwhMEC2k5A7t-19" value="&lt;font style=&quot;font-size: 11px;&quot;&gt;Provide Wait Times&lt;br&gt;&lt;/font&gt;" style="text;html=1;align=center;verticalAlign=middle;resizable=0;points=[];autosize=1;strokeColor=none;fillColor=none;" vertex="1" parent="1">
          <mxGeometry x="460" y="200" width="120" height="30" as="geometry" />
        </mxCell>
        <mxCell id="oneIxxHDJwhMEC2k5A7t-20" value="" style="endArrow=classic;html=1;rounded=0;entryX=0;entryY=0.75;entryDx=0;entryDy=0;exitX=0.987;exitY=0.672;exitDx=0;exitDy=0;exitPerimeter=0;" edge="1" parent="1" source="oneIxxHDJwhMEC2k5A7t-1" target="oneIxxHDJwhMEC2k5A7t-4">
          <mxGeometry width="50" height="50" relative="1" as="geometry">
            <mxPoint x="470" y="280" as="sourcePoint" />
            <mxPoint x="520" y="240" as="targetPoint" />
          </mxGeometry>
        </mxCell>
        <mxCell id="oneIxxHDJwhMEC2k5A7t-21" value="&lt;font style=&quot;font-size: 11px;&quot;&gt;See Patients Priority&lt;br&gt;&lt;/font&gt;" style="text;html=1;align=center;verticalAlign=middle;resizable=0;points=[];autosize=1;strokeColor=none;fillColor=none;" vertex="1" parent="1">
          <mxGeometry x="450" y="238" width="130" height="30" as="geometry" />
        </mxCell>
      </root>
    </mxGraphModel>
  </diagram>
</mxfile>
